<mxfile host="app.diagrams.net" agent="Mozilla/5.0 (Windows NT 10.0; Win64; x64) AppleWebKit/537.36 (KHTML, like Gecko) Chrome/131.0.0.0 Safari/537.36" version="24.8.4">
  <diagram name="Page-1" id="OVmNUtyhqg6inzqh9ays">
    <mxGraphModel dx="875" dy="515" grid="1" gridSize="10" guides="1" tooltips="1" connect="1" arrows="1" fold="1" page="1" pageScale="1" pageWidth="827" pageHeight="1169" math="0" shadow="0">
      <root>
        <mxCell id="0" />
        <mxCell id="1" parent="0" />
        <mxCell id="cPBNh9zOcQOodqwPvnZj-3" style="edgeStyle=orthogonalEdgeStyle;rounded=0;orthogonalLoop=1;jettySize=auto;html=1;exitX=1;exitY=0.5;exitDx=0;exitDy=0;entryX=0;entryY=0.5;entryDx=0;entryDy=0;startArrow=classic;startFill=1;fillColor=#dae8fc;strokeColor=#6c8ebf;" edge="1" parent="1" source="cPBNh9zOcQOodqwPvnZj-1" target="cPBNh9zOcQOodqwPvnZj-2">
          <mxGeometry relative="1" as="geometry" />
        </mxCell>
        <mxCell id="cPBNh9zOcQOodqwPvnZj-4" value="&lt;span style=&quot;font-size: 11px; text-wrap-mode: wrap; background-color: rgb(251, 251, 251);&quot;&gt;SPI, I2C,&lt;/span&gt;&lt;div style=&quot;font-size: 11px;&quot;&gt;&lt;span style=&quot;font-size: 11px; text-wrap-mode: wrap; background-color: rgb(251, 251, 251);&quot;&gt;ABZ, PWM&lt;/span&gt;&lt;/div&gt;" style="edgeLabel;html=1;align=center;verticalAlign=middle;resizable=0;points=[];spacing=2;fontSize=11;" vertex="1" connectable="0" parent="cPBNh9zOcQOodqwPvnZj-3">
          <mxGeometry relative="1" as="geometry">
            <mxPoint as="offset" />
          </mxGeometry>
        </mxCell>
        <mxCell id="cPBNh9zOcQOodqwPvnZj-14" style="edgeStyle=orthogonalEdgeStyle;rounded=0;orthogonalLoop=1;jettySize=auto;html=1;exitX=0.25;exitY=1;exitDx=0;exitDy=0;entryX=0.25;entryY=0;entryDx=0;entryDy=0;fillColor=#dae8fc;strokeColor=#6c8ebf;" edge="1" parent="1" source="cPBNh9zOcQOodqwPvnZj-1" target="cPBNh9zOcQOodqwPvnZj-13">
          <mxGeometry relative="1" as="geometry" />
        </mxCell>
        <mxCell id="cPBNh9zOcQOodqwPvnZj-16" value="2x PWM" style="edgeLabel;html=1;align=center;verticalAlign=middle;resizable=0;points=[];" vertex="1" connectable="0" parent="cPBNh9zOcQOodqwPvnZj-14">
          <mxGeometry x="0.0074" y="2" relative="1" as="geometry">
            <mxPoint as="offset" />
          </mxGeometry>
        </mxCell>
        <mxCell id="cPBNh9zOcQOodqwPvnZj-19" style="edgeStyle=orthogonalEdgeStyle;rounded=0;orthogonalLoop=1;jettySize=auto;html=1;exitX=0.5;exitY=0;exitDx=0;exitDy=0;entryX=0.5;entryY=1;entryDx=0;entryDy=0;startArrow=classic;startFill=1;fillColor=#dae8fc;strokeColor=#6c8ebf;" edge="1" parent="1" source="cPBNh9zOcQOodqwPvnZj-1" target="cPBNh9zOcQOodqwPvnZj-18">
          <mxGeometry relative="1" as="geometry" />
        </mxCell>
        <mxCell id="cPBNh9zOcQOodqwPvnZj-20" value="SPI" style="edgeLabel;html=1;align=center;verticalAlign=middle;resizable=0;points=[];" vertex="1" connectable="0" parent="cPBNh9zOcQOodqwPvnZj-19">
          <mxGeometry x="0.0429" relative="1" as="geometry">
            <mxPoint as="offset" />
          </mxGeometry>
        </mxCell>
        <mxCell id="cPBNh9zOcQOodqwPvnZj-1" value="MCU&lt;br&gt;STM32G0B1" style="rounded=0;whiteSpace=wrap;html=1;fillColor=#d5e8d4;strokeColor=#82b366;" vertex="1" parent="1">
          <mxGeometry x="400" y="280" width="120" height="120" as="geometry" />
        </mxCell>
        <mxCell id="cPBNh9zOcQOodqwPvnZj-2" value="Encoder Interface:" style="rounded=1;whiteSpace=wrap;html=1;fillColor=#e1d5e7;strokeColor=#9673a6;" vertex="1" parent="1">
          <mxGeometry x="580" y="280" width="60" height="120" as="geometry" />
        </mxCell>
        <mxCell id="cPBNh9zOcQOodqwPvnZj-8" style="edgeStyle=orthogonalEdgeStyle;rounded=0;orthogonalLoop=1;jettySize=auto;html=1;exitX=1;exitY=0.5;exitDx=0;exitDy=0;entryX=0;entryY=0.5;entryDx=0;entryDy=0;fillColor=#dae8fc;strokeColor=#6c8ebf;" edge="1" parent="1" source="cPBNh9zOcQOodqwPvnZj-6" target="cPBNh9zOcQOodqwPvnZj-7">
          <mxGeometry relative="1" as="geometry" />
        </mxCell>
        <mxCell id="cPBNh9zOcQOodqwPvnZj-9" value="&lt;div&gt;(Filtering,&lt;/div&gt;termination)" style="edgeLabel;html=1;align=center;verticalAlign=middle;resizable=0;points=[];" vertex="1" connectable="0" parent="cPBNh9zOcQOodqwPvnZj-8">
          <mxGeometry x="-0.0713" y="3" relative="1" as="geometry">
            <mxPoint as="offset" />
          </mxGeometry>
        </mxCell>
        <mxCell id="cPBNh9zOcQOodqwPvnZj-6" value="CAN Interface" style="rounded=1;whiteSpace=wrap;html=1;fillColor=#e1d5e7;strokeColor=#9673a6;" vertex="1" parent="1">
          <mxGeometry x="120" y="160" width="60" height="120" as="geometry" />
        </mxCell>
        <mxCell id="cPBNh9zOcQOodqwPvnZj-10" style="edgeStyle=orthogonalEdgeStyle;rounded=0;orthogonalLoop=1;jettySize=auto;html=1;exitX=1;exitY=0.5;exitDx=0;exitDy=0;entryX=0;entryY=0.5;entryDx=0;entryDy=0;fillColor=#dae8fc;strokeColor=#6c8ebf;" edge="1" parent="1" source="cPBNh9zOcQOodqwPvnZj-7" target="cPBNh9zOcQOodqwPvnZj-1">
          <mxGeometry relative="1" as="geometry" />
        </mxCell>
        <mxCell id="cPBNh9zOcQOodqwPvnZj-11" value="&lt;div&gt;&lt;br&gt;&lt;/div&gt;" style="edgeLabel;html=1;align=center;verticalAlign=middle;resizable=0;points=[];" vertex="1" connectable="0" parent="cPBNh9zOcQOodqwPvnZj-10">
          <mxGeometry x="-0.1356" y="3" relative="1" as="geometry">
            <mxPoint as="offset" />
          </mxGeometry>
        </mxCell>
        <mxCell id="cPBNh9zOcQOodqwPvnZj-12" value="CAN FD" style="edgeLabel;html=1;align=center;verticalAlign=middle;resizable=0;points=[];" vertex="1" connectable="0" parent="cPBNh9zOcQOodqwPvnZj-10">
          <mxGeometry relative="1" as="geometry">
            <mxPoint as="offset" />
          </mxGeometry>
        </mxCell>
        <mxCell id="cPBNh9zOcQOodqwPvnZj-7" value="TJA1051T-3" style="rounded=0;whiteSpace=wrap;html=1;fillColor=#ffe6cc;strokeColor=#d79b00;" vertex="1" parent="1">
          <mxGeometry x="280" y="180" width="80" height="80" as="geometry" />
        </mxCell>
        <mxCell id="cPBNh9zOcQOodqwPvnZj-15" style="edgeStyle=orthogonalEdgeStyle;rounded=0;orthogonalLoop=1;jettySize=auto;html=1;exitX=0.75;exitY=0;exitDx=0;exitDy=0;entryX=0.75;entryY=1;entryDx=0;entryDy=0;fillColor=#dae8fc;strokeColor=#6c8ebf;" edge="1" parent="1" source="cPBNh9zOcQOodqwPvnZj-13" target="cPBNh9zOcQOodqwPvnZj-1">
          <mxGeometry relative="1" as="geometry" />
        </mxCell>
        <mxCell id="cPBNh9zOcQOodqwPvnZj-17" value="ISEN&lt;br&gt;(analog)" style="edgeLabel;html=1;align=center;verticalAlign=middle;resizable=0;points=[];" vertex="1" connectable="0" parent="cPBNh9zOcQOodqwPvnZj-15">
          <mxGeometry x="0.0074" y="1" relative="1" as="geometry">
            <mxPoint as="offset" />
          </mxGeometry>
        </mxCell>
        <mxCell id="cPBNh9zOcQOodqwPvnZj-13" value="DRV8251DDAR" style="whiteSpace=wrap;html=1;aspect=fixed;fillColor=#ffe6cc;strokeColor=#d79b00;" vertex="1" parent="1">
          <mxGeometry x="420" y="480" width="80" height="80" as="geometry" />
        </mxCell>
        <mxCell id="cPBNh9zOcQOodqwPvnZj-18" value="W25Q128JVS" style="rounded=0;whiteSpace=wrap;html=1;fillColor=#ffe6cc;strokeColor=#d79b00;" vertex="1" parent="1">
          <mxGeometry x="420" y="160" width="80" height="80" as="geometry" />
        </mxCell>
        <mxCell id="cPBNh9zOcQOodqwPvnZj-25" style="edgeStyle=orthogonalEdgeStyle;rounded=0;orthogonalLoop=1;jettySize=auto;html=1;exitX=0.75;exitY=0;exitDx=0;exitDy=0;entryX=0.25;entryY=1;entryDx=0;entryDy=0;fillColor=#fad9d5;strokeColor=#ae4132;" edge="1" parent="1" source="cPBNh9zOcQOodqwPvnZj-21" target="cPBNh9zOcQOodqwPvnZj-22">
          <mxGeometry relative="1" as="geometry" />
        </mxCell>
        <mxCell id="cPBNh9zOcQOodqwPvnZj-28" value="12-36V (dec. caps)" style="edgeLabel;html=1;align=center;verticalAlign=middle;resizable=0;points=[];" vertex="1" connectable="0" parent="cPBNh9zOcQOodqwPvnZj-25">
          <mxGeometry x="-0.3633" relative="1" as="geometry">
            <mxPoint x="28" y="-40" as="offset" />
          </mxGeometry>
        </mxCell>
        <mxCell id="cPBNh9zOcQOodqwPvnZj-26" style="edgeStyle=orthogonalEdgeStyle;rounded=0;orthogonalLoop=1;jettySize=auto;html=1;exitX=1;exitY=0.75;exitDx=0;exitDy=0;entryX=0;entryY=0.75;entryDx=0;entryDy=0;fillColor=#fad9d5;strokeColor=#ae4132;" edge="1" parent="1" source="cPBNh9zOcQOodqwPvnZj-21" target="cPBNh9zOcQOodqwPvnZj-13">
          <mxGeometry relative="1" as="geometry" />
        </mxCell>
        <mxCell id="cPBNh9zOcQOodqwPvnZj-27" value="12-36V (Large Elec and Ceramic Caps)" style="edgeLabel;html=1;align=center;verticalAlign=middle;resizable=0;points=[];" vertex="1" connectable="0" parent="cPBNh9zOcQOodqwPvnZj-26">
          <mxGeometry x="-0.2854" y="-3" relative="1" as="geometry">
            <mxPoint x="26" y="-3" as="offset" />
          </mxGeometry>
        </mxCell>
        <mxCell id="cPBNh9zOcQOodqwPvnZj-21" value="12-36V" style="rounded=1;whiteSpace=wrap;html=1;fillColor=#fad9d5;strokeColor=#ae4132;" vertex="1" parent="1">
          <mxGeometry x="120" y="470" width="80" height="80" as="geometry" />
        </mxCell>
        <mxCell id="cPBNh9zOcQOodqwPvnZj-30" style="edgeStyle=orthogonalEdgeStyle;rounded=0;orthogonalLoop=1;jettySize=auto;html=1;exitX=1;exitY=0.5;exitDx=0;exitDy=0;entryX=0;entryY=0.25;entryDx=0;entryDy=0;fillColor=#fad9d5;strokeColor=#ae4132;" edge="1" parent="1" source="cPBNh9zOcQOodqwPvnZj-22" target="cPBNh9zOcQOodqwPvnZj-29">
          <mxGeometry relative="1" as="geometry" />
        </mxCell>
        <mxCell id="cPBNh9zOcQOodqwPvnZj-31" value="5V" style="edgeLabel;html=1;align=center;verticalAlign=middle;resizable=0;points=[];" vertex="1" connectable="0" parent="cPBNh9zOcQOodqwPvnZj-30">
          <mxGeometry x="-0.1333" relative="1" as="geometry">
            <mxPoint as="offset" />
          </mxGeometry>
        </mxCell>
        <mxCell id="cPBNh9zOcQOodqwPvnZj-32" style="edgeStyle=orthogonalEdgeStyle;rounded=0;orthogonalLoop=1;jettySize=auto;html=1;exitX=1;exitY=0.25;exitDx=0;exitDy=0;entryX=0.25;entryY=1;entryDx=0;entryDy=0;fillColor=#fad9d5;strokeColor=#ae4132;" edge="1" parent="1" source="cPBNh9zOcQOodqwPvnZj-22" target="cPBNh9zOcQOodqwPvnZj-7">
          <mxGeometry relative="1" as="geometry" />
        </mxCell>
        <mxCell id="cPBNh9zOcQOodqwPvnZj-33" value="5V" style="edgeLabel;html=1;align=center;verticalAlign=middle;resizable=0;points=[];" vertex="1" connectable="0" parent="cPBNh9zOcQOodqwPvnZj-32">
          <mxGeometry x="0.2943" relative="1" as="geometry">
            <mxPoint as="offset" />
          </mxGeometry>
        </mxCell>
        <mxCell id="cPBNh9zOcQOodqwPvnZj-22" value="LMR33630&lt;br&gt;(Buck)" style="rounded=0;whiteSpace=wrap;html=1;" vertex="1" parent="1">
          <mxGeometry x="160" y="320" width="80" height="80" as="geometry" />
        </mxCell>
        <mxCell id="cPBNh9zOcQOodqwPvnZj-34" style="edgeStyle=orthogonalEdgeStyle;rounded=0;orthogonalLoop=1;jettySize=auto;html=1;exitX=0.75;exitY=0;exitDx=0;exitDy=0;entryX=0.75;entryY=1;entryDx=0;entryDy=0;fillColor=#fad9d5;strokeColor=#ae4132;" edge="1" parent="1" source="cPBNh9zOcQOodqwPvnZj-29" target="cPBNh9zOcQOodqwPvnZj-7">
          <mxGeometry relative="1" as="geometry" />
        </mxCell>
        <mxCell id="cPBNh9zOcQOodqwPvnZj-35" value="3.3V" style="edgeLabel;html=1;align=center;verticalAlign=middle;resizable=0;points=[];" vertex="1" connectable="0" parent="cPBNh9zOcQOodqwPvnZj-34">
          <mxGeometry x="-0.13" y="-2" relative="1" as="geometry">
            <mxPoint x="-2" y="-8" as="offset" />
          </mxGeometry>
        </mxCell>
        <mxCell id="cPBNh9zOcQOodqwPvnZj-36" style="edgeStyle=orthogonalEdgeStyle;rounded=0;orthogonalLoop=1;jettySize=auto;html=1;exitX=1;exitY=0.25;exitDx=0;exitDy=0;entryX=0;entryY=0.75;entryDx=0;entryDy=0;fillColor=#fad9d5;strokeColor=#ae4132;" edge="1" parent="1" source="cPBNh9zOcQOodqwPvnZj-29" target="cPBNh9zOcQOodqwPvnZj-1">
          <mxGeometry relative="1" as="geometry" />
        </mxCell>
        <mxCell id="cPBNh9zOcQOodqwPvnZj-37" value="3.3V" style="edgeLabel;html=1;align=center;verticalAlign=middle;resizable=0;points=[];" vertex="1" connectable="0" parent="cPBNh9zOcQOodqwPvnZj-36">
          <mxGeometry x="-0.1314" y="1" relative="1" as="geometry">
            <mxPoint as="offset" />
          </mxGeometry>
        </mxCell>
        <mxCell id="cPBNh9zOcQOodqwPvnZj-38" style="edgeStyle=orthogonalEdgeStyle;rounded=0;orthogonalLoop=1;jettySize=auto;html=1;exitX=1;exitY=0.75;exitDx=0;exitDy=0;entryX=0;entryY=0.25;entryDx=0;entryDy=0;fillColor=#fad9d5;strokeColor=#ae4132;" edge="1" parent="1" source="cPBNh9zOcQOodqwPvnZj-29" target="cPBNh9zOcQOodqwPvnZj-13">
          <mxGeometry relative="1" as="geometry">
            <Array as="points">
              <mxPoint x="380" y="460" />
              <mxPoint x="380" y="500" />
            </Array>
          </mxGeometry>
        </mxCell>
        <mxCell id="cPBNh9zOcQOodqwPvnZj-39" value="3.3V" style="edgeLabel;html=1;align=center;verticalAlign=middle;resizable=0;points=[];rotation=0;" vertex="1" connectable="0" parent="cPBNh9zOcQOodqwPvnZj-38">
          <mxGeometry x="0.08" y="1" relative="1" as="geometry">
            <mxPoint y="-14" as="offset" />
          </mxGeometry>
        </mxCell>
        <mxCell id="cPBNh9zOcQOodqwPvnZj-29" value="TLV76733&lt;br&gt;(LDO)" style="rounded=0;whiteSpace=wrap;html=1;" vertex="1" parent="1">
          <mxGeometry x="280" y="400" width="80" height="80" as="geometry" />
        </mxCell>
      </root>
    </mxGraphModel>
  </diagram>
</mxfile>
